<svg xmlns="http://www.w3.org/2000/svg" width="107" height="40" viewBox="0 0 107 40" fill="none"><g clip-path="url(#clip0_9144_285)"><path d="M70.3277 30.9027C69.9288 31.1794 69.8246 31.7327 70.1229 32.1207C72.5157 35.2609 75.7889 37.6287 79.5363 38.9185C83.5604 40.3018 87.9222 40.3629 91.9858 39.0982C96.0494 37.8335 99.6028 35.3041 102.129 31.8764C104.654 28.4523 106.023 24.3097 106.034 20.0557C106.045 15.7981 104.698 11.6518 102.19 8.21342C99.6818 4.77499 96.1392 2.22761 92.0828 0.941346C88.0264 -0.344921 83.6646 -0.305398 79.6333 1.05632C75.8787 2.32462 72.5948 4.67439 70.1875 7.80383C69.8893 8.19186 69.9863 8.74158 70.3887 9.02183C70.7911 9.30208 71.3373 9.20507 71.6355 8.82062C73.8272 6.00018 76.8021 3.87676 80.201 2.73062C83.8766 1.48747 87.8539 1.45154 91.551 2.62643C95.2482 3.80131 98.4782 6.12234 100.763 9.25896C103.052 12.392 104.277 16.1753 104.27 20.0557C104.259 23.936 103.012 27.7122 100.709 30.8345C98.4063 33.9567 95.1655 36.2634 91.4612 37.4167C87.7569 38.57 83.7796 38.5125 80.1112 37.2514C76.7195 36.0873 73.7553 33.9495 71.578 31.1183C71.2798 30.7303 70.7337 30.6297 70.3312 30.9099L70.3277 30.9027Z" fill="#EA6A09"></path><path d="M57.7595 12.5321H59.8685V23.6414C59.8685 24.1516 59.944 24.4786 60.0985 24.6187C60.253 24.7588 60.4434 24.8307 60.6734 24.8307C60.9285 24.8307 61.1656 24.8055 61.3848 24.7552C61.6147 24.7049 61.8123 24.6403 61.9812 24.5648L62.2866 26.2355C61.9812 26.3649 61.6147 26.4726 61.1943 26.5625C60.774 26.6523 60.3967 26.6954 60.0626 26.6954C59.3476 26.6954 58.7835 26.4978 58.3739 26.099C57.9643 25.6894 57.7595 25.1253 57.7595 24.4103V12.5357V12.5321ZM47.7137 21.5467C47.7137 22.1863 47.8466 22.7612 48.1161 23.2749C48.3856 23.7887 48.7413 24.1911 49.1904 24.4822C49.6395 24.7768 50.1425 24.9241 50.7066 24.9241C51.2707 24.9241 51.7557 24.7768 52.2012 24.4822C52.6611 24.1768 53.0276 23.7672 53.2935 23.2534C53.563 22.7288 53.6959 22.1539 53.6959 21.5252C53.6959 20.8964 53.563 20.3108 53.2935 19.797C53.024 19.2832 52.6611 18.8808 52.2012 18.5898C51.7521 18.2844 51.2563 18.1299 50.7066 18.1299C50.1569 18.1299 49.6395 18.2844 49.1904 18.5898C48.7413 18.8952 48.3856 19.3048 48.1161 19.8185C47.8466 20.318 47.7137 20.8928 47.7137 21.5467ZM50.7066 26.7277C49.9126 26.7277 49.2047 26.5948 48.576 26.3253C47.9508 26.0451 47.4047 25.6606 46.9448 25.1756C46.4957 24.6906 46.1508 24.1408 45.91 23.5264C45.6657 22.9013 45.5472 22.233 45.5472 21.5324C45.5472 20.8318 45.6693 20.1635 45.91 19.5383C46.1508 18.9131 46.4993 18.3634 46.9448 17.8892C47.4047 17.4041 47.9472 17.0268 48.576 16.7574C49.2155 16.4771 49.9269 16.337 50.7066 16.337C51.4863 16.337 52.1905 16.4771 52.8156 16.7574C53.4552 17.0268 53.9977 17.4041 54.4468 17.8892C54.9067 18.3634 55.2588 18.9131 55.5031 19.5383C55.7475 20.1635 55.866 20.8318 55.866 21.5324C55.866 22.233 55.7439 22.9013 55.5031 23.5264C55.2588 24.1408 54.9067 24.6906 54.4468 25.1756C53.9977 25.6606 53.4552 26.0451 52.8156 26.3253C52.1905 26.5948 51.4863 26.7277 50.7066 26.7277ZM36.1732 21.5467C36.1732 22.1863 36.3062 22.7612 36.5756 23.2749C36.8451 23.7851 37.2008 24.1911 37.6499 24.4822C38.099 24.7768 38.602 24.9241 39.1661 24.9241C39.7302 24.9241 40.2153 24.7768 40.6608 24.4822C41.1207 24.1768 41.4872 23.7672 41.753 23.2534C42.0225 22.7288 42.1554 22.1539 42.1554 21.5252C42.1554 20.8964 42.0225 20.3108 41.753 19.797C41.4836 19.2868 41.1207 18.8808 40.6608 18.5898C40.2117 18.2844 39.7158 18.1299 39.1661 18.1299C38.6164 18.1299 38.099 18.2844 37.6499 18.5898C37.2008 18.8952 36.8451 19.3048 36.5756 19.8185C36.3062 20.318 36.1732 20.8928 36.1732 21.5467ZM39.1661 26.7277C38.3721 26.7277 37.6643 26.5948 37.0355 26.3253C36.4104 26.0451 35.8642 25.6606 35.4043 25.1756C34.9552 24.6906 34.6103 24.1408 34.3696 23.5264C34.1253 22.9013 34.0067 22.233 34.0067 21.5324C34.0067 20.8318 34.1289 20.1635 34.3696 19.5383C34.6103 18.9131 34.9588 18.3634 35.4043 17.8892C35.8642 17.4041 36.4068 17.0268 37.0355 16.7574C37.6751 16.4771 38.3865 16.337 39.1661 16.337C39.9458 16.337 40.65 16.4771 41.2752 16.7574C41.9147 17.0268 42.4572 17.4041 42.9064 17.8892C43.3663 18.3634 43.7184 18.9131 43.9627 19.5383C44.207 20.1635 44.3256 20.8318 44.3256 21.5324C44.3256 22.233 44.2034 22.9013 43.9627 23.5264C43.7184 24.1408 43.3663 24.6906 42.9064 25.1756C42.4572 25.6606 41.9147 26.0451 41.2752 26.3253C40.65 26.5948 39.9458 26.7277 39.1661 26.7277ZM32.2102 26.5373H30.1012V20.918C30.1012 20.009 29.9359 19.3335 29.6018 18.8844C29.2676 18.4353 28.8041 18.2125 28.2005 18.2125C27.8305 18.2125 27.446 18.3131 27.0508 18.5179C26.6556 18.7227 26.3035 19.003 25.9945 19.3622C25.6891 19.7072 25.4627 20.1096 25.3226 20.5695V26.5373H23.2136V12.5321H25.3226V18.5179C25.707 17.8389 26.2316 17.3107 26.8963 16.9262C27.561 16.531 28.276 16.3298 29.0449 16.3298C29.67 16.3298 30.191 16.4376 30.597 16.6568C31.0066 16.8759 31.3264 17.1742 31.5563 17.5586C31.8006 17.9287 31.9659 18.3634 32.0557 18.8628C32.1563 19.3479 32.2102 19.8653 32.2102 20.415V26.5337V26.5373ZM17.0409 26.7277C16.2612 26.7277 15.5499 26.5948 14.9103 26.3253C14.2851 26.0451 13.739 25.6606 13.2791 25.1756C12.8192 24.6906 12.4599 24.1336 12.2048 23.5049C11.9605 22.8797 11.842 22.2114 11.842 21.5108C11.842 20.5659 12.0539 19.7 12.4743 18.9203C12.9091 18.1407 13.5091 17.5119 14.278 17.0412C15.0576 16.567 15.9774 16.3298 17.0409 16.3298C18.1044 16.3298 18.9523 16.5598 19.7069 17.0197C20.4757 17.4688 21.0362 18.0688 21.3955 18.8233L19.344 19.4772C19.114 19.0568 18.7871 18.7299 18.3667 18.4999C17.9571 18.2556 17.5044 18.1371 17.005 18.1371C16.4409 18.1371 15.9307 18.2844 15.4708 18.579C15.0217 18.8592 14.666 19.2581 14.3965 19.7682C14.1414 20.2677 14.0121 20.8497 14.0121 21.5144C14.0121 22.1791 14.145 22.736 14.4145 23.2606C14.684 23.7708 15.0397 24.1804 15.4888 24.4893C15.9487 24.784 16.4625 24.9313 17.0229 24.9313C17.3679 24.9313 17.702 24.8738 18.0218 24.7588C18.3559 24.6295 18.6434 24.4642 18.8841 24.2594C19.1284 24.0402 19.3009 23.8067 19.4015 23.548L21.4746 24.1624C21.2554 24.6618 20.932 25.1037 20.4973 25.4846C20.0769 25.869 19.5703 26.1744 18.9811 26.4044C18.4062 26.6235 17.7595 26.7313 17.0445 26.7313L17.0409 26.7277ZM9.09337 16.1178C8.96403 15.9777 8.78079 15.8304 8.53647 15.6759C8.29215 15.5106 8.00472 15.3561 7.67417 15.216C7.34003 15.0759 6.98433 14.9609 6.59988 14.8711C6.21544 14.7813 5.82022 14.7382 5.41063 14.7382C4.51599 14.7382 3.8513 14.9034 3.41656 15.2376C2.98181 15.5717 2.76264 16.0316 2.76264 16.6173C2.76264 17.052 2.8848 17.3969 3.12553 17.652C3.36985 17.8963 3.73992 18.1011 4.23933 18.2664C4.73875 18.4317 5.36392 18.6113 6.11843 18.8053C7.03822 19.0245 7.83944 19.2832 8.51491 19.5922C9.19397 19.8868 9.71135 20.282 10.0671 20.7815C10.4263 21.2809 10.606 21.9384 10.606 22.7576C10.606 23.4474 10.4766 24.0438 10.2215 24.5432C9.96645 25.0427 9.60716 25.4523 9.14727 25.772C8.68737 26.0774 8.15562 26.311 7.5556 26.4619C6.95558 26.602 6.30886 26.6738 5.61902 26.6738C4.92918 26.6738 4.26448 26.602 3.58542 26.4619C2.92073 26.3217 2.28119 26.1169 1.6668 25.8475C1.06678 25.5672 0.509882 25.2259 -0.00390625 24.8307L0.973368 22.9875C1.13864 23.1528 1.37578 23.3396 1.68477 23.5444C2.00454 23.7348 2.36742 23.9217 2.77702 24.1013C3.19739 24.281 3.65369 24.4355 4.13873 24.5612C4.63815 24.6762 5.14116 24.7337 5.65495 24.7337C6.51006 24.7337 7.16397 24.5864 7.61309 24.2917C8.07298 23.9863 8.30293 23.5516 8.30293 22.9875C8.30293 22.5276 8.15562 22.1611 7.861 21.8953C7.56638 21.615 7.13882 21.3779 6.57473 21.1839C6.01064 20.9934 5.33877 20.7994 4.5591 20.609C3.66447 20.3647 2.91714 20.1024 2.31353 19.8221C1.71351 19.5275 1.25721 19.1575 0.951811 18.7083C0.657191 18.2484 0.509882 17.6664 0.509882 16.9622C0.509882 16.0675 0.72905 15.313 1.16379 14.6986C1.59854 14.0735 2.18778 13.6064 2.92792 13.2974C3.68243 12.9776 4.52677 12.8195 5.46093 12.8195C6.07532 12.8195 6.65737 12.8914 7.20709 13.0315C7.7568 13.1609 8.267 13.3369 8.74127 13.5705C9.22631 13.8004 9.66824 14.0627 10.0635 14.3573L9.08619 16.1214L9.09337 16.1178Z" fill="#484CE6"></path><path d="M88.7986 28.4919C89.0285 28.5422 89.2405 28.5889 89.431 28.6248C89.6358 28.6643 89.8082 28.6823 89.9483 28.6823C90.1927 28.6823 90.3903 28.6176 90.5448 28.4919C90.71 28.3769 90.8717 28.1577 91.0226 27.838C91.1771 27.5326 91.3352 27.0978 91.5005 26.5337L87.5303 16.4807H90.1962L92.9017 23.9037L95.2802 16.4807H97.7342L93.5125 28.5278C93.358 28.9769 93.1209 29.3793 92.8011 29.735C92.4957 30.1051 92.1041 30.3925 91.6298 30.5973C91.1699 30.8165 90.6526 30.9243 90.0777 30.9243C89.8729 30.9243 89.6681 30.9063 89.4633 30.8668C89.2585 30.8417 89.0357 30.7914 88.7914 30.7123V28.4883L88.7986 28.4919ZM83.5098 24.0798C83.6499 23.9253 83.7649 23.7744 83.8547 23.6199C83.9446 23.4654 83.9877 23.3253 83.9877 23.1995V22.1827C83.6823 22.0534 83.3481 21.9599 82.9888 21.8953C82.6296 21.8198 82.2918 21.7803 81.972 21.7803C81.3074 21.7803 80.7576 21.9276 80.3229 22.2222C79.9025 22.5025 79.6905 22.8797 79.6905 23.354C79.6905 23.6091 79.7624 23.8534 79.9025 24.0834C80.0427 24.3133 80.2475 24.5001 80.5169 24.6403C80.7864 24.7804 81.1062 24.8523 81.4762 24.8523C81.8463 24.8523 82.2379 24.7804 82.608 24.6403C82.9781 24.4858 83.2799 24.3025 83.5098 24.0834V24.0798ZM77.2581 23.5624C77.2581 22.9085 77.4378 22.3408 77.7971 21.8558C78.1671 21.3563 78.6809 20.9719 79.3313 20.706C79.9852 20.4366 80.7325 20.3036 81.5768 20.3036C81.9972 20.3036 82.4284 20.3359 82.8631 20.4006C83.2978 20.4653 83.6751 20.5659 83.9949 20.706V20.1671C83.9949 19.5275 83.8044 19.0353 83.42 18.6904C83.0499 18.3455 82.493 18.173 81.7493 18.173C81.1996 18.173 80.675 18.27 80.1756 18.4604C79.6762 18.6509 79.1516 18.9347 78.6019 19.3048L77.7755 17.6161C78.4402 17.1814 79.1193 16.8544 79.8091 16.6388C80.5133 16.4197 81.2463 16.3119 82.0152 16.3119C83.4487 16.3119 84.559 16.6712 85.353 17.3862C86.1578 18.1012 86.5602 19.1251 86.5602 20.4545V23.6594C86.5602 23.9289 86.6033 24.1193 86.6931 24.2343C86.7938 24.3492 86.9554 24.4211 87.171 24.4463V26.5373C86.9411 26.5769 86.7291 26.6092 86.5387 26.6343C86.359 26.6595 86.2045 26.6739 86.0788 26.6739C85.5686 26.6739 85.1769 26.5589 84.9075 26.3289C84.6524 26.099 84.4907 25.8187 84.4296 25.4846L84.3721 24.9672C83.9374 25.5313 83.3948 25.9661 82.7409 26.2715C82.087 26.5769 81.4223 26.7314 80.7469 26.7314C80.0714 26.7314 79.4822 26.5984 78.9432 26.3289C78.4187 26.0487 78.0019 25.6714 77.6965 25.1972C77.4019 24.7121 77.2545 24.166 77.2545 23.566L77.2581 23.5624ZM73.5934 19.7072C73.5934 18.8233 73.4353 18.0508 73.1155 17.3862C72.7957 16.7071 72.3358 16.1825 71.7358 15.8125C71.1358 15.428 70.4064 15.2376 69.5477 15.2376H67.2447V24.2163H69.5477C70.4172 24.2163 71.1538 24.0259 71.7538 23.6414C72.3538 23.2462 72.8101 22.7073 73.1155 22.0282C73.4353 21.3384 73.5934 20.5623 73.5934 19.7072ZM64.5967 26.5373V12.9166H69.5477C71.0316 12.9166 72.2712 13.222 73.27 13.8364C74.2688 14.4364 75.0162 15.2556 75.5156 16.2903C76.015 17.3143 76.2629 18.4533 76.2629 19.7036C76.2629 21.0833 75.9862 22.2869 75.4365 23.3109C74.8868 24.3349 74.1071 25.1253 73.0975 25.6894C72.0987 26.2535 70.9166 26.5337 69.5477 26.5337H64.5967V26.5373Z" fill="#EA6A09"></path></g><defs><clipPath id="clip0_9144_285"><rect width="106.034" height="40" fill="white"></rect></clipPath></defs></svg>